<svg xmlns="http://www.w3.org/2000/svg" viewBox="0 0 272 48" width="272" height="48">
    <circle fill="#fcbf24" cx="24" cy="24" r="24"/>
    <path fill="#d97707" d="M11.979 24l12.021-12.021 12.021 12.021-12.021 12.021z"/>
    <path fill="#fef3c7" d="M41 7l-17 17v-12l5-5h12zm-17 17l17 17v-12l-5-5h-12zm-5 17l5-5v-12l-17 17h12zm-12-22l5 5h12l-17-17v12z"/>
    <path d="M74.1 30.7h8v3.9h-12.1v-20.7h4.1v16.8zm21.2-10.9h3.9v14.8h-3.9v-1.7c-1.1 1.3-2.7 2.2-4.9 2.2-4 0-7.3-3.4-7.3-7.8s3.3-7.8 7.3-7.8c2.2 0 3.8.8 4.9 2.2v-1.9zm0 7.4c0-2.5-1.8-4.2-4.2-4.2-2.4 0-4.1 1.7-4.1 4.2s1.8 4.2 4.1 4.2c2.5 0 4.2-1.7 4.2-4.2zm11.2-4.9v-2.5h-3.9v14.8h3.9v-7.1c0-3.1 2.5-4 4.5-3.8v-4.3c-1.8.1-3.7.9-4.5 2.9zm17.6-2.5h3.9v14.8h-3.9v-1.7c-1.1 1.3-2.7 2.2-4.9 2.2-4 0-7.3-3.4-7.3-7.8s3.3-7.8 7.3-7.8c2.2 0 3.8.8 4.9 2.2v-1.9zm0 7.4c0-2.5-1.8-4.2-4.2-4.2-2.4 0-4.1 1.7-4.1 4.2s1.8 4.2 4.1 4.2c2.4 0 4.2-1.7 4.2-4.2zm13.5 3l-3.6-10.4h-4.2l5.7 14.8h4.4l5.7-14.8h-4.2l-3.8 10.4zm23.9-3c0 .6-.1 1.1-.1 1.6h-11.4c.5 2 2.2 2.8 4.2 2.8 1.5 0 2.7-.6 3.3-1.5l3.1 1.8c-1.4 2-3.6 3.2-6.5 3.2-5 0-8.2-3.4-8.2-7.8s3.2-7.8 7.9-7.8c4.5-.1 7.7 3.3 7.7 7.7zm-3.9-1.4c-.5-2.1-2.1-3-3.7-3-2.1 0-3.5 1.1-3.9 3h7.6zm6.5-12.8v21.6h3.9v-21.6h-3.9zM192.7 23.9c1.1-.4 1.9-1 2.5-1.8.6-.8.9-1.8.9-2.9 0-1.8-.6-3.1-1.8-4-1.2-.9-2.9-1.4-5-1.4h-8.3v20.8h8.5c2.2 0 4-.5 5.2-1.5 1.2-1 1.8-2.4 1.8-4.2 0-1.3-.3-2.4-1-3.3-.7-.8-1.6-1.4-2.8-1.7zm-9.9-8.6h6.1c3.5 0 5.2 1.3 5.2 3.9 0 1.3-.4 2.3-1.3 3-.9.7-2.2 1-3.9 1h-6.1v-7.9zm10.6 16.7c-.8.7-2.2 1-4 1h-6.6v-8.2h6.6c3.5 0 5.2 1.4 5.2 4.2 0 1.4-.4 2.4-1.2 3zm14-12.4c.5 0 .9 0 1.3.1l-.1 1.6c-.4-.1-.8-.1-1.4-.1-1.5 0-2.6.5-3.4 1.4-.7.9-1.1 2.1-1.1 3.4v8.6h-1.7v-10.6c0-1.5-.1-2.9-.2-4.1h1.7l.2 2.7c.4-1 1-1.8 1.8-2.3s1.8-.7 2.9-.7zm9.7 0c-1.4 0-2.6.3-3.6.9-1.1.6-1.9 1.5-2.5 2.7-.6 1.2-.9 2.5-.9 4 0 2.4.7 4.2 2 5.5s3.1 2 5.4 2c1.1 0 2.1-.2 3.1-.5 1-.4 1.9-.8 2.5-1.4l-.7-1.4c-1.5 1.2-3.1 1.8-4.9 1.8-1.8 0-3.1-.5-4.1-1.6-.9-1-1.4-2.5-1.4-4.5v-.1h11.4v-.4c0-2.2-.6-4-1.7-5.2-1-1.2-2.6-1.8-4.6-1.8zm-4.9 6.1c.2-1.5.8-2.6 1.6-3.4.9-.8 2-1.2 3.4-1.2s2.4.4 3.2 1.2c.8.8 1.2 1.9 1.3 3.4h-9.5zm21.2-6.1c-1.4 0-2.6.3-3.6.9-1.1.6-1.9 1.5-2.5 2.7-.6 1.2-.9 2.5-.9 4 0 2.4.7 4.2 2 5.5s3.1 2 5.4 2c1.1 0 2.1-.2 3.1-.5 1-.4 1.9-.8 2.5-1.4l-.7-1.4c-1.5 1.2-3.1 1.8-4.9 1.8-1.8 0-3.1-.5-4.1-1.6-.9-1-1.4-2.5-1.4-4.5v-.1h11.4v-.4c0-2.2-.6-4-1.7-5.2-1.1-1.2-2.6-1.8-4.6-1.8zm-5 6.1c.2-1.5.8-2.6 1.6-3.4.9-.8 2-1.2 3.4-1.2s2.4.4 3.2 1.2c.8.8 1.2 1.9 1.3 3.4h-9.5zm16.5 7.4h10.2v1.5h-12.5v-1.2l10-12h-9.6v-1.4h11.8v1.3l-9.9 11.8zm26.1-6v-.4c0-2.2-.6-4-1.7-5.2-1.1-1.2-2.6-1.9-4.6-1.9-1.4 0-2.6.3-3.6.9-1.1.6-1.9 1.5-2.5 2.7-.6 1.2-.9 2.5-.9 4 0 2.4.7 4.2 2 5.5s3.1 2 5.4 2c1.1 0 2.1-.2 3.1-.5 1-.4 1.9-.8 2.5-1.4l-.7-1.4c-1.5 1.2-3.1 1.8-4.9 1.8-1.8 0-3.1-.5-4.1-1.6-.9-1-1.4-2.5-1.4-4.5v-.1h11.4zm-9.6-4.8c.9-.8 2-1.2 3.4-1.2s2.4.4 3.2 1.2c.8.8 1.2 1.9 1.3 3.4h-9.5c.2-1.5.7-2.6 1.6-3.4z"/>
</svg>
