<svg xmlns="http://www.w3.org/2000/svg" width="369" height="68" viewBox="0 0 369 68"><style>.st0{fill:#fff}.st4{fill:#2e2e2e}</style><path class="st0" d="M220.6 16.8v15.8c-2-4.2-6.2-7-11.3-7h-.3c-3.4 0-6.4 1.2-8.6 3.1l1-2.7h-10.8l-3.4 9.3L184 26h-17.4v.3c-1.3-.5-2.7-.7-4.2-.7-3.4 0-6.5 1.5-8.7 3.8v-4.1l-2.5.1c-1.3.1-2.5.3-3.6.8V26h-19.8v.3c-1.3-.5-2.7-.7-4.2-.7-6.7 0-12.2 5.8-12.2 12.9 0 .8.1 1.5.2 2.2H104V18H93.7v32.7h21.1v-3.3c2.2 2.5 5.4 4 8.8 4 1.5 0 2.9-.3 4.2-.8v.1h19.8v-12c0-1.8.9-2.7 2.8-2.8-.2.8-.2 1.6-.2 2.5 0 7.1 5.5 12.9 12.2 12.9 1.5 0 2.9-.3 4.2-.8v.1h10V34.9l6.1 15.8h9.2l4.2-10.8c.7 6.7 6.1 11.5 13.4 11.5 4.5 0 8.3-1.9 10.7-5.3l.4-.6v5.2h10V16.8h-10zm-96 24.8c-1.9 0-3.2-1.3-3.2-3.3 0-2 1.2-3.3 3.2-3.3s3.3 1.3 3.3 3.3c-.1 2.1-1.3 3.3-3.3 3.3zm38.8 0c-1.9 0-3.2-1.3-3.2-3.3 0-2 1.2-3.3 3.2-3.3s3.3 1.3 3.3 3.3c0 2.1-1.3 3.3-3.3 3.3z"/><circle class="st0" cx="34" cy="34" r="34"/><circle cx="34" cy="34" r="32.4" fill="#fcbf24"/><path d="M17.8 34 34 17.8 50.3 34 34 50.3 17.8 34z" fill="#d97707"/><path d="M57 11.1 34 34V17.9l6.7-6.7H57zM34 34l23 23V40.8L50.2 34H34zm-6.7 23 6.7-6.7V34L11.1 57h16.2zM11.1 27.3l6.7 6.7H34L11.1 11.1v16.2z" fill="#fef3c7"/><path class="st0" d="M359.3 50.1c-3.5 0-6.3-1.1-8.5-3.2-2.1-2.1-3.2-5-3.2-8.6 0-2.3.5-4.3 1.4-6.1 1-2 2.3-3.4 4.1-4.4 1.5-.9 3.5-1.4 5.7-1.4 3 0 5.5 1 7.4 3.1 1.8 1.9 2.7 4.8 2.7 8.1v2.1h-15.3c.2 1.5.6 2.6 1.4 3.4 1 1.1 2.3 1.6 4.3 1.6s3.8-.7 5.6-2.1l1.6-1.3 2.4 4.8-.8.8c-1.1 1.1-2.5 1.7-3.9 2.3h-.2c-1.8.7-3.3.9-4.7.9zm3.7-15.4c-.2-.7-.5-1.3-1-1.7-.8-.8-1.7-1.1-3.1-1.1-1.5 0-2.6.4-3.5 1.2-.5.4-.9 1-1.1 1.7h8.7zm-46 15.4c-3.5 0-6.3-1.1-8.5-3.2s-3.2-5-3.2-8.6c0-2.3.5-4.3 1.4-6.1 1-2 2.3-3.4 4.1-4.4 1.5-.9 3.5-1.4 5.7-1.4 3.1 0 5.6 1 7.4 3 1.8 1.9 2.7 4.8 2.7 8.1v2.2h-15.3c.2 1.5.6 2.6 1.4 3.4 1 1.1 2.3 1.6 4.3 1.6s3.8-.7 5.6-2.1l1.6-1.3 2.4 4.8-.8.8c-1.1 1.1-2.5 1.7-3.9 2.3h-.2c-1.7.7-3.2.9-4.7.9zm3.6-15.4c-.2-.7-.5-1.3-1-1.7-.8-.8-1.7-1.1-3.1-1.1-1.4 0-2.5.4-3.4 1.2-.5.5-.9 1.1-1.1 1.7h8.6zm-25.5 15.4c-3.5 0-6.3-1.1-8.5-3.2s-3.2-5-3.2-8.6c0-2.3.5-4.3 1.4-6.1 1-2 2.3-3.4 4.1-4.4 1.5-.9 3.5-1.4 5.7-1.4 3.2 0 5.8 1 7.5 3 1.7 1.9 2.7 4.7 2.7 8.1v2.2h-15.3c.2 1.5.6 2.6 1.4 3.4 1 1.1 2.3 1.6 4.3 1.6s3.8-.7 5.6-2.1l1.6-1.3 2.4 4.8-.8.8c-1.1 1.1-2.5 1.7-3.9 2.3h-.2c-1.9.7-3.4.9-4.8.9zm3.7-15.4c-.2-.7-.5-1.3-1-1.7-.8-.8-1.7-1.1-3.1-1.1-1.4 0-2.5.4-3.4 1.2-.5.5-.9 1.1-1.1 1.7h8.6zM327.2 50v-3.9l11.6-13.9h-11.1V27H347v4l-11.4 13.6h11.9V50h-20.3zm-56.1 0V34c0-2-.1-3.8-.3-5.4l-.1-1.8h5.7l.1.9c.1 0 .1-.1.2-.1 1.3-.8 2.9-1.2 4.8-1.2.7 0 1.4 0 2.2.2l1.3.3-.3 5.5-1.9-.5c-.3-.1-.8-.1-1.5-.1-1.5 0-2.5.4-3.3 1.3-.7.9-1.1 2.2-1.1 3.5V50h-5.8zm-26.9 0V18.6H257c3.1 0 5.8.8 7.7 2.2 2.1 1.5 3.1 3.8 3.1 6.7 0 1.9-.5 3.6-1.5 4.9-.3.5-.7.9-1.2 1.3.5.4 1 .8 1.5 1.4l.1.1c1.1 1.5 1.7 3.3 1.7 5.5 0 2.9-1 5.3-3 6.9-1.9 1.6-4.7 2.4-8.1 2.4h-13.1zm12.9-5.5c2.8 0 3.9-.6 4.3-.9l.1-.1c.2-.2 1-.7 1-2.7 0-2.1-.6-4-5.3-4H250v7.7h7.1zm-.6-13.2c2 0 3.4-.3 4.2-1 .5-.4 1.1-1.1 1.1-2.7 0-1.2 0-3.6-5.3-3.6h-6.6v7.3h6.6z"/><path class="st4" d="M261.6 33.9c1.5-.5 2.6-1.3 3.4-2.4s1.2-2.4 1.2-3.9c0-2.4-.8-4.2-2.4-5.4s-3.9-1.9-6.7-1.9h-11.2v28.1h11.5c3 0 5.4-.7 7-2 1.6-1.3 2.4-3.2 2.4-5.7 0-1.8-.4-3.2-1.3-4.5-1.1-1.1-2.3-1.9-3.9-2.3zm-13.4-11.6h8.2c4.7 0 7 1.8 7 5.3 0 1.8-.5 3.1-1.8 4-1.2.9-3 1.3-5.3 1.3h-8.2V22.3zm14.3 22.5c-1.1.9-3 1.3-5.4 1.3h-8.9v-11h8.9c4.7 0 7 1.9 7 5.7.1 1.9-.5 3.2-1.6 4zm18.9-16.7c.7 0 1.2 0 1.8.1l-.1 2.2c-.5-.1-1.1-.1-1.9-.1-2 0-3.5.7-4.6 1.9-.9 1.2-1.5 2.8-1.5 4.6v11.6h-2.3V34c0-2-.1-3.9-.3-5.5h2.3l.3 3.6c.5-1.3 1.3-2.4 2.4-3.1s2.4-.9 3.9-.9zm13.1 0c-1.9 0-3.5.4-4.9 1.2-1.5.8-2.6 2-3.4 3.6s-1.2 3.4-1.2 5.4c0 3.2.9 5.7 2.7 7.4 1.8 1.8 4.2 2.7 7.3 2.7 1.5 0 2.8-.3 4.2-.7 1.3-.5 2.6-1.1 3.4-1.9l-.9-1.9c-2 1.6-4.2 2.4-6.6 2.4-2.4 0-4.2-.7-5.5-2.2-1.2-1.3-1.9-3.4-1.9-6.1v-.1H303v-.5c0-3-.8-5.4-2.3-7-1.3-1.5-3.5-2.3-6.2-2.3zm-6.6 8.2c.3-2 1.1-3.5 2.2-4.6 1.2-1.1 2.7-1.6 4.6-1.6s3.2.5 4.3 1.6c1.1 1.1 1.6 2.6 1.8 4.6h-12.9zm28.6-8.2c-1.9 0-3.5.4-4.9 1.2-1.5.8-2.6 2-3.4 3.6s-1.2 3.4-1.2 5.4c0 3.2.9 5.7 2.7 7.4 1.8 1.8 4.2 2.7 7.3 2.7 1.5 0 2.8-.3 4.2-.7 1.3-.5 2.6-1.1 3.4-1.9l-.9-1.9c-2 1.6-4.2 2.4-6.6 2.4-2.4 0-4.2-.7-5.5-2.2-1.2-1.3-1.9-3.4-1.9-6.1v-.1H325v-.5c0-3-.8-5.4-2.3-7-1.5-1.5-3.5-2.3-6.2-2.3zm-6.7 8.2c.3-2 1.1-3.5 2.2-4.6 1.2-1.1 2.7-1.6 4.6-1.6s3.2.5 4.3 1.6c1.1 1.1 1.6 2.6 1.8 4.6h-12.9zm22.2 10h13.8v2h-16.9v-1.6l13.5-16.2h-12.9v-1.9h15.9v1.8L332 46.3zm35.2-8.1v-.5c0-3-.8-5.4-2.3-7-1.5-1.6-3.5-2.6-6.2-2.6-1.9 0-3.5.4-4.9 1.2-1.5.8-2.6 2-3.4 3.6s-1.2 3.4-1.2 5.4c0 3.2.9 5.7 2.7 7.4 1.8 1.8 4.2 2.7 7.3 2.7 1.5 0 2.8-.3 4.2-.7 1.3-.5 2.6-1.1 3.4-1.9l-.9-1.9c-2 1.6-4.2 2.4-6.6 2.4s-4.2-.7-5.5-2.2c-1.2-1.3-1.9-3.4-1.9-6.1v-.1h15.4l-.1.3zm-12.9-6.5c1.2-1.1 2.7-1.6 4.6-1.6s3.2.5 4.3 1.6c1.1 1.1 1.6 2.6 1.8 4.6h-12.8c.2-2 .9-3.5 2.1-4.6zM101.6 43.1h10.8v5.2H96.1V20.4h5.5zM130.2 28.4V31c-1.5-1.9-3.6-3-6.6-3-5.4 0-9.8 4.6-9.8 10.5s4.5 10.5 9.8 10.5c3 0 5.1-1.2 6.6-3v2.3h5.3v-20h-5.3zM124.6 44c-3.1 0-5.5-2.3-5.5-5.7 0-3.4 2.3-5.7 5.5-5.7s5.7 2.3 5.7 5.7c-.1 3.4-2.4 5.7-5.7 5.7zM145.3 31.7v-3.4H140v20h5.3v-9.6c0-4.2 3.4-5.4 6.1-5.1v-5.8c-2.4.2-5 1.2-6.1 3.9zM169.1 28.4V31c-1.5-1.9-3.6-3-6.6-3-5.4 0-9.8 4.6-9.8 10.5s4.5 10.5 9.8 10.5c3 0 5.1-1.2 6.6-3v2.3h5.3v-20h-5.3zM163.4 44c-3.1 0-5.5-2.3-5.5-5.7 0-3.4 2.3-5.7 5.5-5.7s5.7 2.3 5.7 5.7c0 3.4-2.5 5.7-5.7 5.7zM187.3 42.4l-4.9-14h-5.6l7.6 19.9h6l7.7-19.9h-5.7l-5.1 14zM219.5 38.4c0-5.9-4.3-10.5-10.4-10.4-6.3 0-10.7 4.6-10.7 10.5S202.8 49 209.5 49c3.9 0 6.9-1.6 8.8-4.3l-4.2-2.4c-.8 1.2-2.4 2-4.5 2-2.7 0-5-1.1-5.7-3.8h15.4c.1-.7.2-1.3.2-2.1zM204 36.5c.5-2.6 2.4-4 5.3-4 2.2 0 4.3 1.2 5 4H204zM223 19.2h5.3v29.1H223z"/></svg>