<svg xmlns="http://www.w3.org/2000/svg" width="369" height="68" viewBox="0 0 369 68">
    <style>
        #breeze { fill: #2e2e2e } @media (prefers-color-scheme:dark) { #breeze { fill: #fff } }
    </style>
    <circle cx="34" cy="34" r="32.4" fill="#fcbf24"/>
    <path d="M17.8 34 34 17.8 50.3 34 34 50.3 17.8 34z" fill="#d97707"/>
    <path d="M57 11.1 34 34V17.9l6.7-6.7H57zM34 34l23 23V40.8L50.2 34H34zm-6.7 23 6.7-6.7V34L11.1 57h16.2zM11.1 27.3l6.7 6.7H34L11.1 11.1v16.2z" fill="#fef3c7"/>
    <path id="breeze" d="M261.6 33.9c1.5-.5 2.6-1.3 3.4-2.4s1.2-2.4 1.2-3.9c0-2.4-.8-4.2-2.4-5.4s-3.9-1.9-6.7-1.9h-11.2v28.1h11.5c3 0 5.4-.7 7-2 1.6-1.3 2.4-3.2 2.4-5.7 0-1.8-.4-3.2-1.3-4.5-1.1-1.1-2.3-1.9-3.9-2.3zm-13.4-11.6h8.2c4.7 0 7 1.8 7 5.3 0 1.8-.5 3.1-1.8 4-1.2.9-3 1.3-5.3 1.3h-8.2V22.3zm14.3 22.5c-1.1.9-3 1.3-5.4 1.3h-8.9v-11h8.9c4.7 0 7 1.9 7 5.7.1 1.9-.5 3.2-1.6 4zm18.9-16.7c.7 0 1.2 0 1.8.1l-.1 2.2c-.5-.1-1.1-.1-1.9-.1-2 0-3.5.7-4.6 1.9-.9 1.2-1.5 2.8-1.5 4.6v11.6h-2.3V34c0-2-.1-3.9-.3-5.5h2.3l.3 3.6c.5-1.3 1.3-2.4 2.4-3.1s2.4-.9 3.9-.9zm13.1 0c-1.9 0-3.5.4-4.9 1.2-1.5.8-2.6 2-3.4 3.6s-1.2 3.4-1.2 5.4c0 3.2.9 5.7 2.7 7.4 1.8 1.8 4.2 2.7 7.3 2.7 1.5 0 2.8-.3 4.2-.7 1.3-.5 2.6-1.1 3.4-1.9l-.9-1.9c-2 1.6-4.2 2.4-6.6 2.4-2.4 0-4.2-.7-5.5-2.2-1.2-1.3-1.9-3.4-1.9-6.1v-.1H303v-.5c0-3-.8-5.4-2.3-7-1.3-1.5-3.5-2.3-6.2-2.3zm-6.6 8.2c.3-2 1.1-3.5 2.2-4.6 1.2-1.1 2.7-1.6 4.6-1.6s3.2.5 4.3 1.6c1.1 1.1 1.6 2.6 1.8 4.6h-12.9zm28.6-8.2c-1.9 0-3.5.4-4.9 1.2-1.5.8-2.6 2-3.4 3.6s-1.2 3.4-1.2 5.4c0 3.2.9 5.7 2.7 7.4 1.8 1.8 4.2 2.7 7.3 2.7 1.5 0 2.8-.3 4.2-.7 1.3-.5 2.6-1.1 3.4-1.9l-.9-1.9c-2 1.6-4.2 2.4-6.6 2.4-2.4 0-4.2-.7-5.5-2.2-1.2-1.3-1.9-3.4-1.9-6.1v-.1H325v-.5c0-3-.8-5.4-2.3-7-1.5-1.5-3.5-2.3-6.2-2.3zm-6.7 8.2c.3-2 1.1-3.5 2.2-4.6 1.2-1.1 2.7-1.6 4.6-1.6s3.2.5 4.3 1.6c1.1 1.1 1.6 2.6 1.8 4.6h-12.9zm22.2 10h13.8v2h-16.9v-1.6l13.5-16.2h-12.9v-1.9h15.9v1.8L332 46.3zm35.2-8.1v-.5c0-3-.8-5.4-2.3-7-1.5-1.6-3.5-2.6-6.2-2.6-1.9 0-3.5.4-4.9 1.2-1.5.8-2.6 2-3.4 3.6s-1.2 3.4-1.2 5.4c0 3.2.9 5.7 2.7 7.4 1.8 1.8 4.2 2.7 7.3 2.7 1.5 0 2.8-.3 4.2-.7 1.3-.5 2.6-1.1 3.4-1.9l-.9-1.9c-2 1.6-4.2 2.4-6.6 2.4s-4.2-.7-5.5-2.2c-1.2-1.3-1.9-3.4-1.9-6.1v-.1h15.4l-.1.3zm-12.9-6.5c1.2-1.1 2.7-1.6 4.6-1.6s3.2.5 4.3 1.6c1.1 1.1 1.6 2.6 1.8 4.6h-12.8c.2-2 .9-3.5 2.1-4.6zM101.6 43.1h10.8v5.2H96.1V20.4h5.5zM130.2 28.4V31c-1.5-1.9-3.6-3-6.6-3-5.4 0-9.8 4.6-9.8 10.5s4.5 10.5 9.8 10.5c3 0 5.1-1.2 6.6-3v2.3h5.3v-20h-5.3zM124.6 44c-3.1 0-5.5-2.3-5.5-5.7 0-3.4 2.3-5.7 5.5-5.7s5.7 2.3 5.7 5.7c-.1 3.4-2.4 5.7-5.7 5.7zM145.3 31.7v-3.4H140v20h5.3v-9.6c0-4.2 3.4-5.4 6.1-5.1v-5.8c-2.4.2-5 1.2-6.1 3.9zM169.1 28.4V31c-1.5-1.9-3.6-3-6.6-3-5.4 0-9.8 4.6-9.8 10.5s4.5 10.5 9.8 10.5c3 0 5.1-1.2 6.6-3v2.3h5.3v-20h-5.3zM163.4 44c-3.1 0-5.5-2.3-5.5-5.7 0-3.4 2.3-5.7 5.5-5.7s5.7 2.3 5.7 5.7c0 3.4-2.5 5.7-5.7 5.7zM187.3 42.4l-4.9-14h-5.6l7.6 19.9h6l7.7-19.9h-5.7l-5.1 14zM219.5 38.4c0-5.9-4.3-10.5-10.4-10.4-6.3 0-10.7 4.6-10.7 10.5S202.8 49 209.5 49c3.9 0 6.9-1.6 8.8-4.3l-4.2-2.4c-.8 1.2-2.4 2-4.5 2-2.7 0-5-1.1-5.7-3.8h15.4c.1-.7.2-1.3.2-2.1zM204 36.5c.5-2.6 2.4-4 5.3-4 2.2 0 4.3 1.2 5 4H204zM223 19.2h5.3v29.1H223z"/>
</svg>
